solid spikeball_ascii.stl
facet normal -0.9341738224029541 0.356818288564682 -1.907349087559851e-06
outer loop
vertex -0.46708619594573975 0.17841100692749023 -5.773502826690674
vertex -2.2511959075927734 -4.492451190948486 2.8867509365081787
vertex -2.1893930435180664 -4.330647945404053 2.7867510318756104
endloop
endfacet
facet normal -0.9341723322868347 0.35682201385498047 0.0
outer loop
vertex -0.46708619594573975 0.17841100692749023 -5.773502826690674
vertex -2.1893930435180664 -4.330647945404053 2.7867510318756104
vertex -0.46708619594573975 0.17841100692749023 -5.573503017425537
endloop
endfacet
facet normal -0.9341723918914795 0.35682201385498047 0.0
outer loop
vertex -0.46708619594573975 0.17841100692749023 -5.773502826690674
vertex -0.46708619594573975 0.17841100692749023 -5.573503017425537
vertex 1.3170239925384521 4.849273204803467 2.8867509365081787
endloop
endfacet
facet normal 0.3090168833732605 0.8090169429779053 -0.5000000596046448
outer loop
vertex -0.46708619594573975 0.17841100692749023 -5.773502826690674
vertex 1.3170239925384521 4.849273204803467 2.8867509365081787
vertex 2.2511959075927734 4.492451190948486 2.8867509365081787
endloop
endfacet
facet normal 0.3090169131755829 0.80901700258255 -0.5000000596046448
outer loop
vertex -0.46708619594573975 0.17841100692749023 -5.773502826690674
vertex 2.2511959075927734 4.492451190948486 2.8867509365081787
vertex 0.46708619594573975 -0.17841100692749023 -5.773502826690674
endloop
endfacet
facet normal 0.9341724514961243 -0.3568219244480133 0.0
outer loop
vertex 0.46708619594573975 -0.17841100692749023 -5.773502826690674
vertex 2.2511959075927734 4.492451190948486 2.8867509365081787
vertex 0.46708619594573975 -0.17841100692749023 -5.573503017425537
endloop
endfacet
facet normal 0.9341723918914795 -0.3568219244480133 0.0
outer loop
vertex 0.46708619594573975 -0.17841100692749023 -5.773502826690674
vertex 0.46708619594573975 -0.17841100692749023 -5.573503017425537
vertex -1.2552200555801392 -4.687469959259033 2.7867510318756104
endloop
endfacet
facet normal 0.934170663356781 -0.35682663321495056 -2.8610140816454077e-06
outer loop
vertex 0.46708619594573975 -0.17841100692749023 -5.773502826690674
vertex -1.2552200555801392 -4.687469959259033 2.7867510318756104
vertex -1.3170239925384521 -4.849273204803467 2.8867509365081787
endloop
endfacet
facet normal -0.3090168833732605 -0.8090169429779053 -0.5000000596046448
outer loop
vertex 0.46708619594573975 -0.17841100692749023 -5.773502826690674
vertex -1.3170239925384521 -4.849273204803467 2.8867509365081787
vertex -2.2511959075927734 -4.492451190948486 2.8867509365081787
endloop
endfacet
facet normal -0.3090169131755829 -0.80901700258255 -0.5000000596046448
outer loop
vertex 0.46708619594573975 -0.17841100692749023 -5.773502826690674
vertex -2.2511959075927734 -4.492451190948486 2.8867509365081787
vertex -0.46708619594573975 0.17841100692749023 -5.773502826690674
endloop
endfacet
facet normal -0.9341706037521362 0.35682666301727295 -2.9636767067131586e-06
outer loop
vertex -0.46708619594573975 0.17841100692749023 -5.573503017425537
vertex 1.2552200555801392 4.687469959259033 2.7867510318756104
vertex 1.3170239925384521 4.849273204803467 2.8867509365081787
endloop
endfacet
facet normal 0.30901649594306946 0.8090171217918396 0.5000000596046448
outer loop
vertex -0.46708619594573975 0.17841100692749023 -5.573503017425537
vertex -2.1893930435180664 -4.330647945404053 2.7867510318756104
vertex -1.2552200555801392 -4.687469959259033 2.7867510318756104
endloop
endfacet
facet normal 0.3090169429779053 0.80901700258255 0.5
outer loop
vertex -0.46708619594573975 0.17841100692749023 -5.573503017425537
vertex -1.2552200555801392 -4.687469959259033 2.7867510318756104
vertex 0.46708619594573975 -0.17841100692749023 -5.573503017425537
endloop
endfacet
facet normal -0.30901649594306946 -0.8090171217918396 0.5000000596046448
outer loop
vertex 0.46708619594573975 -0.17841100692749023 -5.573503017425537
vertex 2.1893930435180664 4.330647945404053 2.7867510318756104
vertex 1.2552200555801392 4.687469959259033 2.7867510318756104
endloop
endfacet
facet normal -0.3090169429779053 -0.80901700258255 0.5
outer loop
vertex 0.46708619594573975 -0.17841100692749023 -5.573503017425537
vertex 1.2552200555801392 4.687469959259033 2.7867510318756104
vertex -0.46708619594573975 0.17841100692749023 -5.573503017425537
endloop
endfacet
facet normal 0.934173583984375 -0.35681888461112976 -1.9757906102313427e-06
outer loop
vertex 0.46708619594573975 -0.17841100692749023 -5.573503017425537
vertex 2.2511959075927734 4.492451190948486 2.8867509365081787
vertex 2.1893930435180664 4.330647945404053 2.7867510318756104
endloop
endfacet
facet normal 0.3090165853500366 -0.8090174198150635 -0.4999995231628418
outer loop
vertex -2.598076105117798 -1.4954349994659424 -4.959537982940674
vertex 4.959537029266357 -2.598076105117798 1.4954349994659424
vertex 4.382185935974121 -3.1754260063171387 2.0727860927581787
endloop
endfacet
facet normal 0.30901727080345154 -0.8090168237686157 -0.5000001192092896
outer loop
vertex -2.598076105117798 -1.4954349994659424 -4.959537982940674
vertex 4.382185935974121 -3.1754260063171387 2.0727860927581787
vertex -3.1754260063171387 -2.0727860927581787 -4.3821868896484375
endloop
endfacet
facet normal 0.5773443579673767 0.5773538947105408 -0.5773524641990662
outer loop
vertex -2.598076105117798 -1.4954349994659424 -4.959537982940674
vertex -1.4954349994659424 4.959537029266357 2.5980770587921143
vertex -1.4336320161819458 4.797733783721924 2.4980759620666504
endloop
endfacet
facet normal 0.5773553252220154 0.5773471593856812 -0.5773483514785767
outer loop
vertex -2.598076105117798 -1.4954349994659424 -4.959537982940674
vertex -1.4336320161819458 4.797733783721924 2.4980759620666504
vertex -2.4980759620666504 -1.4336320161819458 -4.797733783721924
endloop
endfacet
facet normal 0.5773484706878662 0.5773552060127258 -0.5773472189903259
outer loop
vertex -2.598076105117798 -1.4954349994659424 -4.959537982940674
vertex -2.4980759620666504 -1.4336320161819458 -4.797733783721924
vertex 4.959537029266357 -2.598076105117798 1.4954349994659424
endloop
endfacet
facet normal -0.809017539024353 0.499999463558197 -0.3090163767337799
outer loop
vertex -2.598076105117798 -1.4954349994659424 -4.959537982940674
vertex -3.1754260063171387 -2.0727860927581787 -4.3821868896484375
vertex -1.4954349994659424 4.959537029266357 2.5980770587921143
endloop
endfacet
facet normal -0.5773443579673767 -0.5773538947105408 -0.5773524641990662
outer loop
vertex 2.598076105117798 1.4954349994659424 -4.959537982940674
vertex 1.4954349994659424 -4.959537029266357 2.5980770587921143
vertex 1.4336320161819458 -4.797733783721924 2.4980759620666504
endloop
endfacet
facet normal -0.5773553252220154 -0.5773471593856812 -0.5773483514785767
outer loop
vertex 2.598076105117798 1.4954349994659424 -4.959537982940674
vertex 1.4336320161819458 -4.797733783721924 2.4980759620666504
vertex 2.4980759620666504 1.4336320161819458 -4.797733783721924
endloop
endfacet
facet normal -0.5773484706878662 -0.5773552060127258 -0.5773472189903259
outer loop
vertex 2.598076105117798 1.4954349994659424 -4.959537982940674
vertex 2.4980759620666504 1.4336320161819458 -4.797733783721924
vertex -4.959537029266357 2.598076105117798 1.4954349994659424
endloop
endfacet
facet normal -0.3090165853500366 0.8090174198150635 -0.4999995231628418
outer loop
vertex 2.598076105117798 1.4954349994659424 -4.959537982940674
vertex -4.959537029266357 2.598076105117798 1.4954349994659424
vertex -4.382185935974121 3.1754260063171387 2.0727860927581787
endloop
endfacet
facet normal -0.30901727080345154 0.8090168237686157 -0.5000001192092896
outer loop
vertex 2.598076105117798 1.4954349994659424 -4.959537982940674
vertex -4.382185935974121 3.1754260063171387 2.0727860927581787
vertex 3.1754260063171387 2.0727860927581787 -4.3821868896484375
endloop
endfacet
facet normal 0.809017539024353 -0.499999463558197 -0.3090163767337799
outer loop
vertex 2.598076105117798 1.4954349994659424 -4.959537982940674
vertex 3.1754260063171387 2.0727860927581787 -4.3821868896484375
vertex 1.4954349994659424 -4.959537029266357 2.5980770587921143
endloop
endfacet
facet normal -1.0 0.0 0.0
outer loop
vertex -2.8867509365081787 1.3170239925384521 -4.849273204803467
vertex -2.8867509365081787 -2.2511959075927734 4.492451190948486
vertex -2.8867509365081787 -1.3170239925384521 4.849273204803467
endloop
endfacet
facet normal -1.0 0.0 0.0
outer loop
vertex -2.8867509365081787 1.3170239925384521 -4.849273204803467
vertex -2.8867509365081787 -1.3170239925384521 4.849273204803467
vertex -2.8867509365081787 2.2511959075927734 -4.492451190948486
endloop
endfacet
facet normal 0.0 -0.9341725707054138 -0.35682162642478943
outer loop
vertex -2.8867509365081787 1.3170239925384521 -4.849273204803467
vertex 5.773502826690674 -0.46708619594573975 -0.17841100692749023
vertex 5.573503017425537 -0.46708619594573975 -0.17841100692749023
endloop
endfacet
facet normal 2.9328141408768715e-06 -0.9341706037521362 -0.3568267226219177
outer loop
vertex -2.8867509365081787 1.3170239925384521 -4.849273204803467
vertex 5.573503017425537 -0.46708619594573975 -0.17841100692749023
vertex -2.7867510318756104 1.2552200555801392 -4.687469959259033
endloop
endfacet
facet normal -5.78165554543375e-06 -0.9341723918914795 -0.3568219840526581
outer loop
vertex -2.8867509365081787 1.3170239925384521 -4.849273204803467
vertex -2.7867510318756104 1.2552200555801392 -4.687469959259033
vertex -2.8867509365081787 -2.2511959075927734 4.492451190948486
endloop
endfacet
facet normal 0.5 0.30901703238487244 -0.8090169429779053
outer loop
vertex -2.8867509365081787 1.3170239925384521 -4.849273204803467
vertex -2.8867509365081787 2.2511959075927734 -4.492451190948486
vertex 5.773502826690674 -0.46708619594573975 -0.17841100692749023
endloop
endfacet
facet normal 1.0 0.0 0.0
outer loop
vertex 2.8867509365081787 -1.3170239925384521 -4.849273204803467
vertex 2.8867509365081787 2.2511959075927734 4.492451190948486
vertex 2.8867509365081787 1.3170239925384521 4.849273204803467
endloop
endfacet
facet normal 1.0 0.0 -0.0
outer loop
vertex 2.8867509365081787 -1.3170239925384521 -4.849273204803467
vertex 2.8867509365081787 1.3170239925384521 4.849273204803467
vertex 2.8867509365081787 -2.2511959075927734 -4.492451190948486
endloop
endfacet
facet normal -2.8312183530943003e-06 0.9341706037521362 -0.35682666301727295
outer loop
vertex 2.8867509365081787 -1.3170239925384521 -4.849273204803467
vertex -5.773502826690674 0.46708619594573975 -0.17841100692749023
vertex 2.7867510318756104 -1.2552200555801392 -4.687469959259033
endloop
endfacet
facet normal 5.803894509881502e-06 0.9341723918914795 -0.3568219840526581
outer loop
vertex 2.8867509365081787 -1.3170239925384521 -4.849273204803467
vertex 2.7867510318756104 -1.2552200555801392 -4.687469959259033
vertex 2.7867510318756104 2.1893930435180664 4.330647945404053
endloop
endfacet
facet normal 3.814700903603807e-06 0.9341723918914795 -0.3568219840526581
outer loop
vertex 2.8867509365081787 -1.3170239925384521 -4.849273204803467
vertex 2.7867510318756104 2.1893930435180664 4.330647945404053
vertex 2.8867509365081787 2.2511959075927734 4.492451190948486
endloop
endfacet
facet normal -0.5 -0.30901703238487244 -0.8090169429779053
outer loop
vertex 2.8867509365081787 -1.3170239925384521 -4.849273204803467
vertex 2.8867509365081787 -2.2511959075927734 -4.492451190948486
vertex -5.773502826690674 0.46708619594573975 -0.17841100692749023
endloop
endfacet
facet normal -0.3090171217918396 0.8090168833732605 0.5000000596046448
outer loop
vertex -2.4980759620666504 -1.4336320161819458 -4.797733783721924
vertex -3.0754261016845703 -2.010982036590576 -4.220384120941162
vertex 4.797733783721924 -2.4980759620666504 1.4336320161819458
endloop
endfacet
facet normal 0.5773504376411438 0.5773494243621826 -0.577350914478302
outer loop
vertex -2.4980759620666504 -1.4336320161819458 -4.797733783721924
vertex 4.797733783721924 -2.4980759620666504 1.4336320161819458
vertex 4.959537029266357 -2.598076105117798 1.4954349994659424
endloop
endfacet
facet normal 0.8090173006057739 -0.49999961256980896 0.3090166449546814
outer loop
vertex -2.4980759620666504 -1.4336320161819458 -4.797733783721924
vertex -1.4336320161819458 4.797733783721924 2.4980759620666504
vertex -2.010982036590576 4.220383167266846 3.0754270553588867
endloop
endfacet
facet normal 0.8090169429779053 -0.5000001192092896 0.3090170919895172
outer loop
vertex -2.4980759620666504 -1.4336320161819458 -4.797733783721924
vertex -2.010982036590576 4.220383167266846 3.0754270553588867
vertex -3.0754261016845703 -2.010982036590576 -4.220384120941162
endloop
endfacet
facet normal -0.5773504376411438 -0.5773494243621826 -0.577350914478302
outer loop
vertex 2.4980759620666504 1.4336320161819458 -4.797733783721924
vertex -4.797733783721924 2.4980759620666504 1.4336320161819458
vertex -4.959537029266357 2.598076105117798 1.4954349994659424
endloop
endfacet
facet normal 0.3090171217918396 -0.8090168833732605 0.5000000596046448
outer loop
vertex 2.4980759620666504 1.4336320161819458 -4.797733783721924
vertex 3.0754261016845703 2.010982036590576 -4.220384120941162
vertex -4.797733783721924 2.4980759620666504 1.4336320161819458
endloop
endfacet
facet normal -0.8090173006057739 0.49999961256980896 0.3090166449546814
outer loop
vertex 2.4980759620666504 1.4336320161819458 -4.797733783721924
vertex 1.4336320161819458 -4.797733783721924 2.4980759620666504
vertex 2.010982036590576 -4.220383167266846 3.0754270553588867
endloop
endfacet
facet normal -0.8090169429779053 0.5000001192092896 0.3090170919895172
outer loop
vertex 2.4980759620666504 1.4336320161819458 -4.797733783721924
vertex 2.010982036590576 -4.220383167266846 3.0754270553588867
vertex 3.0754261016845703 2.010982036590576 -4.220384120941162
endloop
endfacet
facet normal 1.0 0.0 -0.0
outer loop
vertex -2.7867510318756104 1.2552200555801392 -4.687469959259033
vertex -2.7867510318756104 2.1893930435180664 -4.330647945404053
vertex -2.7867510318756104 -2.1893930435180664 4.330647945404053
endloop
endfacet
facet normal -0.5000000596046448 -0.3090166747570038 0.8090171217918396
outer loop
vertex -2.7867510318756104 1.2552200555801392 -4.687469959259033
vertex 5.573503017425537 -0.46708619594573975 -0.17841100692749023
vertex 5.573503017425537 0.46708619594573975 0.17841100692749023
endloop
endfacet
facet normal -0.5 -0.30901673436164856 0.8090170621871948
outer loop
vertex -2.7867510318756104 1.2552200555801392 -4.687469959259033
vertex 5.573503017425537 0.46708619594573975 0.17841100692749023
vertex -2.7867510318756104 2.1893930435180664 -4.330647945404053
endloop
endfacet
facet normal -3.951587586925598e-06 -0.9341723918914795 -0.3568219542503357
outer loop
vertex -2.7867510318756104 1.2552200555801392 -4.687469959259033
vertex -2.7867510318756104 -2.1893930435180664 4.330647945404053
vertex -2.8867509365081787 -2.2511959075927734 4.492451190948486
endloop
endfacet
facet normal 0.0 0.9341720342636108 -0.35682278871536255
outer loop
vertex 2.7867510318756104 -1.2552200555801392 -4.687469959259033
vertex -5.773502826690674 0.46708619594573975 -0.17841100692749023
vertex -5.573503017425537 0.46708619594573975 -0.17841100692749023
endloop
endfacet
facet normal -1.0 0.0 0.0
outer loop
vertex 2.7867510318756104 -1.2552200555801392 -4.687469959259033
vertex 2.7867510318756104 -2.1893930435180664 -4.330647945404053
vertex 2.7867510318756104 2.1893930435180664 4.330647945404053
endloop
endfacet
facet normal 0.5000000596046448 0.3090166747570038 0.8090171217918396
outer loop
vertex 2.7867510318756104 -1.2552200555801392 -4.687469959259033
vertex -5.573503017425537 0.46708619594573975 -0.17841100692749023
vertex -5.573503017425537 -0.46708619594573975 0.17841100692749023
endloop
endfacet
facet normal 0.5 0.30901673436164856 0.8090170621871948
outer loop
vertex 2.7867510318756104 -1.2552200555801392 -4.687469959259033
vertex -5.573503017425537 -0.46708619594573975 0.17841100692749023
vertex 2.7867510318756104 -2.1893930435180664 -4.330647945404053
endloop
endfacet
facet normal -4.2319334170315415e-06 0.9341723918914795 0.3568219840526581
outer loop
vertex -2.8867509365081787 2.2511959075927734 -4.492451190948486
vertex -2.8867509365081787 -1.3170239925384521 4.849273204803467
vertex -2.7867510318756104 2.1893930435180664 -4.330647945404053
endloop
endfacet
facet normal 2.1610280782624613e-06 0.9341737031936646 0.3568185567855835
outer loop
vertex -2.8867509365081787 2.2511959075927734 -4.492451190948486
vertex -2.7867510318756104 2.1893930435180664 -4.330647945404053
vertex 5.573503017425537 0.46708619594573975 0.17841100692749023
endloop
endfacet
facet normal 0.0 0.9341725707054138 0.35682162642478943
outer loop
vertex -2.8867509365081787 2.2511959075927734 -4.492451190948486
vertex 5.573503017425537 0.46708619594573975 0.17841100692749023
vertex 5.773502826690674 0.46708619594573975 0.17841100692749023
endloop
endfacet
facet normal 0.5000000596046448 0.30901676416397095 -0.80901700258255
outer loop
vertex -2.8867509365081787 2.2511959075927734 -4.492451190948486
vertex 5.773502826690674 0.46708619594573975 0.17841100692749023
vertex 5.773502826690674 -0.46708619594573975 -0.17841100692749023
endloop
endfacet
facet normal -0.5000000596046448 -0.30901676416397095 -0.80901700258255
outer loop
vertex 2.8867509365081787 -2.2511959075927734 -4.492451190948486
vertex -5.773502826690674 -0.46708619594573975 0.17841100692749023
vertex -5.773502826690674 0.46708619594573975 -0.17841100692749023
endloop
endfacet
facet normal 7.629401807207614e-06 -0.9341723918914795 0.3568219840526581
outer loop
vertex 2.8867509365081787 -2.2511959075927734 -4.492451190948486
vertex 2.8867509365081787 1.3170239925384521 4.849273204803467
vertex 2.7867510318756104 1.2552200555801392 4.687469959259033
endloop
endfacet
facet normal 4.198562237434089e-06 -0.9341723918914795 0.3568219542503357
outer loop
vertex 2.8867509365081787 -2.2511959075927734 -4.492451190948486
vertex 2.7867510318756104 1.2552200555801392 4.687469959259033
vertex 2.7867510318756104 -2.1893930435180664 -4.330647945404053
endloop
endfacet
facet normal -2.086167796733207e-06 -0.9341737031936646 0.3568185865879059
outer loop
vertex 2.8867509365081787 -2.2511959075927734 -4.492451190948486
vertex 2.7867510318756104 -2.1893930435180664 -4.330647945404053
vertex -5.773502826690674 -0.46708619594573975 0.17841100692749023
endloop
endfacet
facet normal -0.5773524641990662 -0.5773445963859558 0.5773537158966064
outer loop
vertex -3.1754260063171387 -2.0727860927581787 -4.3821868896484375
vertex 4.382185935974121 -3.1754260063171387 2.0727860927581787
vertex -3.0754261016845703 -2.010982036590576 -4.220384120941162
endloop
endfacet
facet normal -0.577344536781311 -0.5773538947105408 0.5773524045944214
outer loop
vertex -3.1754260063171387 -2.0727860927581787 -4.3821868896484375
vertex -3.0754261016845703 -2.010982036590576 -4.220384120941162
vertex -2.010982036590576 4.220383167266846 3.0754270553588867
endloop
endfacet
facet normal -0.577347457408905 -0.5773522257804871 0.5773512721061707
outer loop
vertex -3.1754260063171387 -2.0727860927581787 -4.3821868896484375
vertex -2.010982036590576 4.220383167266846 3.0754270553588867
vertex -2.0727860927581787 4.382185935974121 3.175426959991455
endloop
endfacet
facet normal -0.8090166449546814 0.5000002384185791 -0.3090173602104187
outer loop
vertex -3.1754260063171387 -2.0727860927581787 -4.3821868896484375
vertex -2.0727860927581787 4.382185935974121 3.175426959991455
vertex -1.4954349994659424 4.959537029266357 2.5980770587921143
endloop
endfacet
facet normal 0.5773524641990662 0.5773445963859558 0.5773537158966064
outer loop
vertex 3.1754260063171387 2.0727860927581787 -4.3821868896484375
vertex -4.382185935974121 3.1754260063171387 2.0727860927581787
vertex 3.0754261016845703 2.010982036590576 -4.220384120941162
endloop
endfacet
facet normal 0.577344536781311 0.5773538947105408 0.5773524045944214
outer loop
vertex 3.1754260063171387 2.0727860927581787 -4.3821868896484375
vertex 3.0754261016845703 2.010982036590576 -4.220384120941162
vertex 2.010982036590576 -4.220383167266846 3.0754270553588867
endloop
endfacet
facet normal 0.577347457408905 0.5773522257804871 0.5773512721061707
outer loop
vertex 3.1754260063171387 2.0727860927581787 -4.3821868896484375
vertex 2.010982036590576 -4.220383167266846 3.0754270553588867
vertex 2.0727860927581787 -4.382185935974121 3.175426959991455
endloop
endfacet
facet normal 0.8090166449546814 -0.5000002384185791 -0.3090173602104187
outer loop
vertex 3.1754260063171387 2.0727860927581787 -4.3821868896484375
vertex 2.0727860927581787 -4.382185935974121 3.175426959991455
vertex 1.4954349994659424 -4.959537029266357 2.5980770587921143
endloop
endfacet
facet normal 1.0 0.0 0.0
outer loop
vertex -2.7867510318756104 2.1893930435180664 -4.330647945404053
vertex -2.7867510318756104 -1.2552200555801392 4.687469959259033
vertex -2.7867510318756104 -2.1893930435180664 4.330647945404053
endloop
endfacet
facet normal -7.903175173851196e-06 0.9341723918914795 0.3568219542503357
outer loop
vertex -2.7867510318756104 2.1893930435180664 -4.330647945404053
vertex -2.8867509365081787 -1.3170239925384521 4.849273204803467
vertex -2.7867510318756104 -1.2552200555801392 4.687469959259033
endloop
endfacet
facet normal -1.0 0.0 0.0
outer loop
vertex 2.7867510318756104 -2.1893930435180664 -4.330647945404053
vertex 2.7867510318756104 1.2552200555801392 4.687469959259033
vertex 2.7867510318756104 2.1893930435180664 4.330647945404053
endloop
endfacet
facet normal 0.0 -0.9341720342636108 0.35682278871536255
outer loop
vertex 2.7867510318756104 -2.1893930435180664 -4.330647945404053
vertex -5.573503017425537 -0.46708619594573975 0.17841100692749023
vertex -5.773502826690674 -0.46708619594573975 0.17841100692749023
endloop
endfacet
facet normal -0.5773524045944214 -0.5773454904556274 0.5773528814315796
outer loop
vertex -3.0754261016845703 -2.010982036590576 -4.220384120941162
vertex 4.382185935974121 -3.1754260063171387 2.0727860927581787
vertex 4.220383167266846 -3.0754261016845703 2.010982036590576
endloop
endfacet
facet normal -0.3090169429779053 0.8090171813964844 0.4999997913837433
outer loop
vertex -3.0754261016845703 -2.010982036590576 -4.220384120941162
vertex 4.220383167266846 -3.0754261016845703 2.010982036590576
vertex 4.797733783721924 -2.4980759620666504 1.4336320161819458
endloop
endfacet
facet normal 0.3090169429779053 -0.8090171813964844 0.4999997913837433
outer loop
vertex 3.0754261016845703 2.010982036590576 -4.220384120941162
vertex -4.220383167266846 3.0754261016845703 2.010982036590576
vertex -4.797733783721924 2.4980759620666504 1.4336320161819458
endloop
endfacet
facet normal 0.5773524045944214 0.5773454904556274 0.5773528814315796
outer loop
vertex 3.0754261016845703 2.010982036590576 -4.220384120941162
vertex -4.382185935974121 3.1754260063171387 2.0727860927581787
vertex -4.220383167266846 3.0754261016845703 2.010982036590576
endloop
endfacet
facet normal 0.5000002980232239 -0.3090173006057739 -0.8090167045593262
outer loop
vertex -2.0727860927581787 -4.382185935974121 -3.175426959991455
vertex 4.382185935974121 3.1754260063171387 -2.0727860927581787
vertex 4.959537029266357 2.598076105117798 -1.4954349994659424
endloop
endfacet
facet normal 0.4999995231628418 -0.3090163469314575 -0.809017539024353
outer loop
vertex -2.0727860927581787 -4.382185935974121 -3.175426959991455
vertex 4.959537029266357 2.598076105117798 -1.4954349994659424
vertex -1.4954349994659424 -4.959537029266357 -2.5980770587921143
endloop
endfacet
facet normal -0.5773458480834961 0.5773534774780273 -0.5773515701293945
outer loop
vertex -2.0727860927581787 -4.382185935974121 -3.175426959991455
vertex -3.1754260063171387 2.0727860927581787 4.3821868896484375
vertex -3.0754261016845703 2.010982036590576 4.220384120941162
endloop
endfacet
facet normal -0.5773448348045349 0.5773537158966064 -0.5773522257804871
outer loop
vertex -2.0727860927581787 -4.382185935974121 -3.175426959991455
vertex -3.0754261016845703 2.010982036590576 4.220384120941162
vertex -2.010982036590576 -4.220383167266846 -3.0754270553588867
endloop
endfacet
facet normal -0.5773535966873169 0.5773524045944214 -0.5773447751998901
outer loop
vertex -2.0727860927581787 -4.382185935974121 -3.175426959991455
vertex -2.010982036590576 -4.220383167266846 -3.0754270553588867
vertex 4.382185935974121 3.1754260063171387 -2.0727860927581787
endloop
endfacet
facet normal -0.809016764163971 -0.5000001788139343 0.30901724100112915
outer loop
vertex -2.0727860927581787 -4.382185935974121 -3.175426959991455
vertex -1.4954349994659424 -4.959537029266357 -2.5980770587921143
vertex -3.1754260063171387 2.0727860927581787 4.3821868896484375
endloop
endfacet
facet normal 0.5773458480834961 -0.5773534774780273 -0.5773515701293945
outer loop
vertex 2.0727860927581787 4.382185935974121 -3.175426959991455
vertex 3.1754260063171387 -2.0727860927581787 4.3821868896484375
vertex 3.0754261016845703 -2.010982036590576 4.220384120941162
endloop
endfacet
facet normal 0.5773448348045349 -0.5773537158966064 -0.5773522257804871
outer loop
vertex 2.0727860927581787 4.382185935974121 -3.175426959991455
vertex 3.0754261016845703 -2.010982036590576 4.220384120941162
vertex 2.010982036590576 4.220383167266846 -3.0754270553588867
endloop
endfacet
facet normal 0.5773535966873169 -0.5773524045944214 -0.5773447751998901
outer loop
vertex 2.0727860927581787 4.382185935974121 -3.175426959991455
vertex 2.010982036590576 4.220383167266846 -3.0754270553588867
vertex -4.382185935974121 -3.1754260063171387 -2.0727860927581787
endloop
endfacet
facet normal -0.5000002980232239 0.3090173006057739 -0.8090167045593262
outer loop
vertex 2.0727860927581787 4.382185935974121 -3.175426959991455
vertex -4.382185935974121 -3.1754260063171387 -2.0727860927581787
vertex -4.959537029266357 -2.598076105117798 -1.4954349994659424
endloop
endfacet
facet normal -0.4999995231628418 0.3090163469314575 -0.809017539024353
outer loop
vertex 2.0727860927581787 4.382185935974121 -3.175426959991455
vertex -4.959537029266357 -2.598076105117798 -1.4954349994659424
vertex 1.4954349994659424 4.959537029266357 -2.5980770587921143
endloop
endfacet
facet normal 0.809016764163971 0.5000001788139343 0.30901724100112915
outer loop
vertex 2.0727860927581787 4.382185935974121 -3.175426959991455
vertex 1.4954349994659424 4.959537029266357 -2.5980770587921143
vertex 3.1754260063171387 -2.0727860927581787 4.3821868896484375
endloop
endfacet
facet normal -0.5000004172325134 0.3090173900127411 0.8090165853500366
outer loop
vertex -2.010982036590576 -4.220383167266846 -3.0754270553588867
vertex -1.4336320161819458 -4.797733783721924 -2.4980759620666504
vertex 4.220383167266846 3.0754261016845703 -2.010982036590576
endloop
endfacet
facet normal 0.8090168833732605 0.5000001192092896 -0.30901703238487244
outer loop
vertex -2.010982036590576 -4.220383167266846 -3.0754270553588867
vertex -3.0754261016845703 2.010982036590576 4.220384120941162
vertex -2.4980759620666504 1.4336320161819458 4.797733783721924
endloop
endfacet
facet normal 0.8090173602104187 0.49999961256980896 -0.3090166449546814
outer loop
vertex -2.010982036590576 -4.220383167266846 -3.0754270553588867
vertex -2.4980759620666504 1.4336320161819458 4.797733783721924
vertex -1.4336320161819458 -4.797733783721924 -2.4980759620666504
endloop
endfacet
facet normal -0.5773535966873169 0.5773525834083557 -0.5773446559906006
outer loop
vertex -2.010982036590576 -4.220383167266846 -3.0754270553588867
vertex 4.220383167266846 3.0754261016845703 -2.010982036590576
vertex 4.382185935974121 3.1754260063171387 -2.0727860927581787
endloop
endfacet
facet normal -0.8090168833732605 -0.5000001192092896 -0.30901703238487244
outer loop
vertex 2.010982036590576 4.220383167266846 -3.0754270553588867
vertex 3.0754261016845703 -2.010982036590576 4.220384120941162
vertex 2.4980759620666504 -1.4336320161819458 4.797733783721924
endloop
endfacet
facet normal -0.8090173602104187 -0.49999961256980896 -0.3090166449546814
outer loop
vertex 2.010982036590576 4.220383167266846 -3.0754270553588867
vertex 2.4980759620666504 -1.4336320161819458 4.797733783721924
vertex 1.4336320161819458 4.797733783721924 -2.4980759620666504
endloop
endfacet
facet normal 0.5000004172325134 -0.3090173900127411 0.8090165853500366
outer loop
vertex 2.010982036590576 4.220383167266846 -3.0754270553588867
vertex 1.4336320161819458 4.797733783721924 -2.4980759620666504
vertex -4.220383167266846 -3.0754261016845703 -2.010982036590576
endloop
endfacet
facet normal 0.5773535966873169 -0.5773525834083557 -0.5773446559906006
outer loop
vertex 2.010982036590576 4.220383167266846 -3.0754270553588867
vertex -4.220383167266846 -3.0754261016845703 -2.010982036590576
vertex -4.382185935974121 -3.1754260063171387 -2.0727860927581787
endloop
endfacet
facet normal 0.0 0.0 -1.0
outer loop
vertex 1.3170239925384521 -4.849273204803467 -2.8867509365081787
vertex -2.2511959075927734 4.492451190948486 -2.8867509365081787
vertex -1.3170239925384521 4.849273204803467 -2.8867509365081787
endloop
endfacet
facet normal -0.9341725707054138 -0.35682162642478943 0.0
outer loop
vertex 1.3170239925384521 -4.849273204803467 -2.8867509365081787
vertex -0.46708619594573975 -0.17841100692749023 5.773502826690674
vertex -0.46708619594573975 -0.17841100692749023 5.573503017425537
endloop
endfacet
facet normal -0.9341706037521362 -0.3568267226219177 2.9328141408768715e-06
outer loop
vertex 1.3170239925384521 -4.849273204803467 -2.8867509365081787
vertex -0.46708619594573975 -0.17841100692749023 5.573503017425537
vertex 1.2552200555801392 -4.687469959259033 -2.7867510318756104
endloop
endfacet
facet normal -0.9341723918914795 -0.3568219840526581 -5.78165554543375e-06
outer loop
vertex 1.3170239925384521 -4.849273204803467 -2.8867509365081787
vertex 1.2552200555801392 -4.687469959259033 -2.7867510318756104
vertex -2.2511959075927734 4.492451190948486 -2.8867509365081787
endloop
endfacet
facet normal 0.30901676416397095 -0.80901700258255 0.5000000596046448
outer loop
vertex 2.2511959075927734 -4.492451190948486 -2.8867509365081787
vertex 0.46708619594573975 0.17841100692749023 5.773502826690674
vertex -0.46708619594573975 -0.17841100692749023 5.773502826690674
endloop
endfacet
facet normal 0.30901703238487244 -0.8090169429779053 0.5
outer loop
vertex 2.2511959075927734 -4.492451190948486 -2.8867509365081787
vertex -0.46708619594573975 -0.17841100692749023 5.773502826690674
vertex 1.3170239925384521 -4.849273204803467 -2.8867509365081787
endloop
endfacet
facet normal 0.9341723918914795 0.3568219840526581 -4.2319334170315415e-06
outer loop
vertex 2.2511959075927734 -4.492451190948486 -2.8867509365081787
vertex -1.3170239925384521 4.849273204803467 -2.8867509365081787
vertex 2.1893930435180664 -4.330647945404053 -2.7867510318756104
endloop
endfacet
facet normal 0.9341737031936646 0.3568185567855835 2.1610280782624613e-06
outer loop
vertex 2.2511959075927734 -4.492451190948486 -2.8867509365081787
vertex 2.1893930435180664 -4.330647945404053 -2.7867510318756104
vertex 0.46708619594573975 0.17841100692749023 5.573503017425537
endloop
endfacet
facet normal 0.9341725707054138 0.35682162642478943 0.0
outer loop
vertex 2.2511959075927734 -4.492451190948486 -2.8867509365081787
vertex 0.46708619594573975 0.17841100692749023 5.573503017425537
vertex 0.46708619594573975 0.17841100692749023 5.773502826690674
endloop
endfacet
facet normal -0.9341723918914795 -0.3568219542503357 -4.198562237434089e-06
outer loop
vertex -2.2511959075927734 4.492451190948486 -2.8867509365081787
vertex 1.2552200555801392 -4.687469959259033 -2.7867510318756104
vertex -2.1893930435180664 4.330647945404053 -2.7867510318756104
endloop
endfacet
facet normal -0.9341737031936646 -0.3568185865879059 2.086167796733207e-06
outer loop
vertex -2.2511959075927734 4.492451190948486 -2.8867509365081787
vertex -2.1893930435180664 4.330647945404053 -2.7867510318756104
vertex -0.46708619594573975 -0.17841100692749023 5.773502826690674
endloop
endfacet
facet normal -0.30901676416397095 0.80901700258255 0.5000000596046448
outer loop
vertex -2.2511959075927734 4.492451190948486 -2.8867509365081787
vertex -0.46708619594573975 -0.17841100692749023 5.773502826690674
vertex 0.46708619594573975 0.17841100692749023 5.773502826690674
endloop
endfacet
facet normal -0.30901703238487244 0.8090169429779053 0.5
outer loop
vertex -2.2511959075927734 4.492451190948486 -2.8867509365081787
vertex 0.46708619594573975 0.17841100692749023 5.773502826690674
vertex -1.3170239925384521 4.849273204803467 -2.8867509365081787
endloop
endfacet
facet normal 0.9341706037521362 0.35682666301727295 2.8312183530943003e-06
outer loop
vertex -1.3170239925384521 4.849273204803467 -2.8867509365081787
vertex 0.46708619594573975 0.17841100692749023 5.773502826690674
vertex -1.2552200555801392 4.687469959259033 -2.7867510318756104
endloop
endfacet
facet normal 0.9341723918914795 0.3568219840526581 -5.803894509881502e-06
outer loop
vertex -1.3170239925384521 4.849273204803467 -2.8867509365081787
vertex -1.2552200555801392 4.687469959259033 -2.7867510318756104
vertex 2.1893930435180664 -4.330647945404053 -2.7867510318756104
endloop
endfacet
facet normal 0.0 0.0 -1.0
outer loop
vertex -1.3170239925384521 4.849273204803467 -2.8867509365081787
vertex 2.2511959075927734 -4.492451190948486 -2.8867509365081787
vertex 1.3170239925384521 -4.849273204803467 -2.8867509365081787
endloop
endfacet
facet normal -0.3090166747570038 0.8090171217918396 -0.5000000596046448
outer loop
vertex 1.2552200555801392 -4.687469959259033 -2.7867510318756104
vertex -0.46708619594573975 -0.17841100692749023 5.573503017425537
vertex 0.46708619594573975 0.17841100692749023 5.573503017425537
endloop
endfacet
facet normal -0.30901673436164856 0.8090170621871948 -0.5
outer loop
vertex 1.2552200555801392 -4.687469959259033 -2.7867510318756104
vertex 0.46708619594573975 0.17841100692749023 5.573503017425537
vertex 2.1893930435180664 -4.330647945404053 -2.7867510318756104
endloop
endfacet
facet normal 0.0 0.0 1.0
outer loop
vertex 2.1893930435180664 -4.330647945404053 -2.7867510318756104
vertex -1.2552200555801392 4.687469959259033 -2.7867510318756104
vertex -2.1893930435180664 4.330647945404053 -2.7867510318756104
endloop
endfacet
facet normal 0.0 0.0 1.0
outer loop
vertex -2.1893930435180664 4.330647945404053 -2.7867510318756104
vertex 1.2552200555801392 -4.687469959259033 -2.7867510318756104
vertex 2.1893930435180664 -4.330647945404053 -2.7867510318756104
endloop
endfacet
facet normal -0.9341720342636108 -0.35682278871536255 0.0
outer loop
vertex -2.1893930435180664 4.330647945404053 -2.7867510318756104
vertex -0.46708619594573975 -0.17841100692749023 5.573503017425537
vertex -0.46708619594573975 -0.17841100692749023 5.773502826690674
endloop
endfacet
facet normal 0.3090166747570038 -0.8090171217918396 -0.5000000596046448
outer loop
vertex -1.2552200555801392 4.687469959259033 -2.7867510318756104
vertex 0.46708619594573975 0.17841100692749023 5.573503017425537
vertex -0.46708619594573975 -0.17841100692749023 5.573503017425537
endloop
endfacet
facet normal 0.30901673436164856 -0.8090170621871948 -0.5
outer loop
vertex -1.2552200555801392 4.687469959259033 -2.7867510318756104
vertex -0.46708619594573975 -0.17841100692749023 5.573503017425537
vertex -2.1893930435180664 4.330647945404053 -2.7867510318756104
endloop
endfacet
facet normal 0.9341720342636108 0.35682278871536255 0.0
outer loop
vertex -1.2552200555801392 4.687469959259033 -2.7867510318756104
vertex 0.46708619594573975 0.17841100692749023 5.773502826690674
vertex 0.46708619594573975 0.17841100692749023 5.573503017425537
endloop
endfacet
facet normal 0.5773526430130005 -0.5773518085479736 0.5773465037345886
outer loop
vertex -1.4954349994659424 -4.959537029266357 -2.5980770587921143
vertex 4.959537029266357 2.598076105117798 -1.4954349994659424
vertex -1.4336320161819458 -4.797733783721924 -2.4980759620666504
endloop
endfacet
facet normal 0.5773464441299438 -0.5773526430130005 0.5773517489433289
outer loop
vertex -1.4954349994659424 -4.959537029266357 -2.5980770587921143
vertex -1.4336320161819458 -4.797733783721924 -2.4980759620666504
vertex -2.4980759620666504 1.4336320161819458 4.797733783721924
endloop
endfacet
facet normal 0.5773552060127258 -0.5773475766181946 0.5773480534553528
outer loop
vertex -1.4954349994659424 -4.959537029266357 -2.5980770587921143
vertex -2.4980759620666504 1.4336320161819458 4.797733783721924
vertex -2.598076105117798 1.4954349994659424 4.959537982940674
endloop
endfacet
facet normal -0.809017539024353 -0.4999995231628418 0.3090164065361023
outer loop
vertex -1.4954349994659424 -4.959537029266357 -2.5980770587921143
vertex -2.598076105117798 1.4954349994659424 4.959537982940674
vertex -3.1754260063171387 2.0727860927581787 4.3821868896484375
endloop
endfacet
facet normal 0.809017539024353 0.4999995231628418 0.3090164065361023
outer loop
vertex 1.4954349994659424 4.959537029266357 -2.5980770587921143
vertex 2.598076105117798 -1.4954349994659424 4.959537982940674
vertex 3.1754260063171387 -2.0727860927581787 4.3821868896484375
endloop
endfacet
facet normal -0.5773526430130005 0.5773518085479736 0.5773465037345886
outer loop
vertex 1.4954349994659424 4.959537029266357 -2.5980770587921143
vertex -4.959537029266357 -2.598076105117798 -1.4954349994659424
vertex 1.4336320161819458 4.797733783721924 -2.4980759620666504
endloop
endfacet
facet normal -0.5773464441299438 0.5773526430130005 0.5773517489433289
outer loop
vertex 1.4954349994659424 4.959537029266357 -2.5980770587921143
vertex 1.4336320161819458 4.797733783721924 -2.4980759620666504
vertex 2.4980759620666504 -1.4336320161819458 4.797733783721924
endloop
endfacet
facet normal -0.5773552060127258 0.5773475766181946 0.5773480534553528
outer loop
vertex 1.4954349994659424 4.959537029266357 -2.5980770587921143
vertex 2.4980759620666504 -1.4336320161819458 4.797733783721924
vertex 2.598076105117798 -1.4954349994659424 4.959537982940674
endloop
endfacet
facet normal 0.577350378036499 -0.577350914478302 0.5773494243621826
outer loop
vertex -1.4336320161819458 -4.797733783721924 -2.4980759620666504
vertex 4.959537029266357 2.598076105117798 -1.4954349994659424
vertex 4.797733783721924 2.4980759620666504 -1.4336320161819458
endloop
endfacet
facet normal -0.4999997615814209 0.30901679396629333 0.8090173006057739
outer loop
vertex -1.4336320161819458 -4.797733783721924 -2.4980759620666504
vertex 4.797733783721924 2.4980759620666504 -1.4336320161819458
vertex 4.220383167266846 3.0754261016845703 -2.010982036590576
endloop
endfacet
facet normal -0.577350378036499 0.577350914478302 0.5773494243621826
outer loop
vertex 1.4336320161819458 4.797733783721924 -2.4980759620666504
vertex -4.959537029266357 -2.598076105117798 -1.4954349994659424
vertex -4.797733783721924 -2.4980759620666504 -1.4336320161819458
endloop
endfacet
facet normal 0.4999997615814209 -0.30901679396629333 0.8090173006057739
outer loop
vertex 1.4336320161819458 4.797733783721924 -2.4980759620666504
vertex -4.797733783721924 -2.4980759620666504 -1.4336320161819458
vertex -4.220383167266846 -3.0754261016845703 -2.010982036590576
endloop
endfacet
facet normal -0.80901700258255 -0.5000000596046448 -0.30901676416397095
outer loop
vertex -4.492451190948486 2.8867509365081787 -2.2511959075927734
vertex 0.17841100692749023 -5.773502826690674 -0.46708619594573975
vertex -0.17841100692749023 -5.773502826690674 0.46708619594573975
endloop
endfacet
facet normal -0.8090169429779053 -0.5 -0.30901703238487244
outer loop
vertex -4.492451190948486 2.8867509365081787 -2.2511959075927734
vertex -0.17841100692749023 -5.773502826690674 0.46708619594573975
vertex -4.849273204803467 2.8867509365081787 -1.3170239925384521
endloop
endfacet
facet normal 0.3568219840526581 7.629401807207614e-06 -0.9341723918914795
outer loop
vertex -4.492451190948486 2.8867509365081787 -2.2511959075927734
vertex 4.849273204803467 2.8867509365081787 1.3170239925384521
vertex 4.687469959259033 2.7867510318756104 1.2552200555801392
endloop
endfacet
facet normal 0.3568219542503357 4.198562237434089e-06 -0.9341723918914795
outer loop
vertex -4.492451190948486 2.8867509365081787 -2.2511959075927734
vertex 4.687469959259033 2.7867510318756104 1.2552200555801392
vertex -4.330647945404053 2.7867510318756104 -2.1893930435180664
endloop
endfacet
facet normal 0.3568185865879059 -2.086167796733207e-06 -0.9341737031936646
outer loop
vertex -4.492451190948486 2.8867509365081787 -2.2511959075927734
vertex -4.330647945404053 2.7867510318756104 -2.1893930435180664
vertex 0.17841100692749023 -5.773502826690674 -0.46708619594573975
endloop
endfacet
facet normal 0.0 1.0 -0.0
outer loop
vertex -4.492451190948486 2.8867509365081787 -2.2511959075927734
vertex -4.849273204803467 2.8867509365081787 -1.3170239925384521
vertex 4.849273204803467 2.8867509365081787 1.3170239925384521
endloop
endfacet
facet normal 0.0 -1.0 0.0
outer loop
vertex 4.492451190948486 -2.8867509365081787 -2.2511959075927734
vertex 4.849273204803467 -2.8867509365081787 -1.3170239925384521
vertex -4.849273204803467 -2.8867509365081787 1.3170239925384521
endloop
endfacet
facet normal 0.80901700258255 0.5000000596046448 -0.30901676416397095
outer loop
vertex 4.492451190948486 -2.8867509365081787 -2.2511959075927734
vertex -0.17841100692749023 5.773502826690674 -0.46708619594573975
vertex 0.17841100692749023 5.773502826690674 0.46708619594573975
endloop
endfacet
facet normal 0.8090169429779053 0.5 -0.30901703238487244
outer loop
vertex 4.492451190948486 -2.8867509365081787 -2.2511959075927734
vertex 0.17841100692749023 5.773502826690674 0.46708619594573975
vertex 4.849273204803467 -2.8867509365081787 -1.3170239925384521
endloop
endfacet
facet normal -0.3568219840526581 -7.629401807207614e-06 -0.9341723918914795
outer loop
vertex 4.492451190948486 -2.8867509365081787 -2.2511959075927734
vertex -4.849273204803467 -2.8867509365081787 1.3170239925384521
vertex -4.687469959259033 -2.7867510318756104 1.2552200555801392
endloop
endfacet
facet normal -0.3568219542503357 -4.198562237434089e-06 -0.9341723918914795
outer loop
vertex 4.492451190948486 -2.8867509365081787 -2.2511959075927734
vertex -4.687469959259033 -2.7867510318756104 1.2552200555801392
vertex 4.330647945404053 -2.7867510318756104 -2.1893930435180664
endloop
endfacet
facet normal -0.3568185865879059 2.086167796733207e-06 -0.9341737031936646
outer loop
vertex 4.492451190948486 -2.8867509365081787 -2.2511959075927734
vertex 4.330647945404053 -2.7867510318756104 -2.1893930435180664
vertex -0.17841100692749023 5.773502826690674 -0.46708619594573975
endloop
endfacet
facet normal 0.0 -1.0 0.0
outer loop
vertex -4.330647945404053 2.7867510318756104 -2.1893930435180664
vertex 4.687469959259033 2.7867510318756104 1.2552200555801392
vertex 4.330647945404053 2.7867510318756104 2.1893930435180664
endloop
endfacet
facet normal 0.0 -1.0 0.0
outer loop
vertex -4.330647945404053 2.7867510318756104 -2.1893930435180664
vertex 4.330647945404053 2.7867510318756104 2.1893930435180664
vertex -4.687469959259033 2.7867510318756104 -1.2552200555801392
endloop
endfacet
facet normal 0.35682278871536255 0.0 -0.9341720342636108
outer loop
vertex -4.330647945404053 2.7867510318756104 -2.1893930435180664
vertex 0.17841100692749023 -5.573503017425537 -0.46708619594573975
vertex 0.17841100692749023 -5.773502826690674 -0.46708619594573975
endloop
endfacet
facet normal 0.8090170621871948 0.5 0.30901673436164856
outer loop
vertex -4.330647945404053 2.7867510318756104 -2.1893930435180664
vertex -4.687469959259033 2.7867510318756104 -1.2552200555801392
vertex 0.17841100692749023 -5.573503017425537 -0.46708619594573975
endloop
endfacet
facet normal -0.35682278871536255 0.0 -0.9341720342636108
outer loop
vertex 4.330647945404053 -2.7867510318756104 -2.1893930435180664
vertex -0.17841100692749023 5.573503017425537 -0.46708619594573975
vertex -0.17841100692749023 5.773502826690674 -0.46708619594573975
endloop
endfacet
facet normal -0.8090170621871948 -0.5 0.30901673436164856
outer loop
vertex 4.330647945404053 -2.7867510318756104 -2.1893930435180664
vertex 4.687469959259033 -2.7867510318756104 -1.2552200555801392
vertex -0.17841100692749023 5.573503017425537 -0.46708619594573975
endloop
endfacet
facet normal 0.0 1.0 0.0
outer loop
vertex 4.330647945404053 -2.7867510318756104 -2.1893930435180664
vertex -4.687469959259033 -2.7867510318756104 1.2552200555801392
vertex -4.330647945404053 -2.7867510318756104 2.1893930435180664
endloop
endfacet
facet normal 0.0 1.0 -0.0
outer loop
vertex 4.330647945404053 -2.7867510318756104 -2.1893930435180664
vertex -4.330647945404053 -2.7867510318756104 2.1893930435180664
vertex 4.687469959259033 -2.7867510318756104 -1.2552200555801392
endloop
endfacet
facet normal 0.5773524045944214 -0.5773447155952454 -0.5773535966873169
outer loop
vertex -4.382185935974121 -3.1754260063171387 -2.0727860927581787
vertex -4.220383167266846 -3.0754261016845703 -2.010982036590576
vertex 3.1754260063171387 -2.0727860927581787 4.3821868896484375
endloop
endfacet
facet normal -0.30901747941970825 -0.8090167045593262 0.5000001788139343
outer loop
vertex -4.382185935974121 -3.1754260063171387 -2.0727860927581787
vertex 3.1754260063171387 -2.0727860927581787 4.3821868896484375
vertex 2.598076105117798 -1.4954349994659424 4.959537982940674
endloop
endfacet
facet normal -0.3090164363384247 -0.809017539024353 0.49999943375587463
outer loop
vertex -4.382185935974121 -3.1754260063171387 -2.0727860927581787
vertex 2.598076105117798 -1.4954349994659424 4.959537982940674
vertex -4.959537029266357 -2.598076105117798 -1.4954349994659424
endloop
endfacet
facet normal 0.30901747941970825 0.8090167045593262 0.5000001788139343
outer loop
vertex 4.382185935974121 3.1754260063171387 -2.0727860927581787
vertex -3.1754260063171387 2.0727860927581787 4.3821868896484375
vertex -2.598076105117798 1.4954349994659424 4.959537982940674
endloop
endfacet
facet normal 0.3090164363384247 0.809017539024353 0.49999943375587463
outer loop
vertex 4.382185935974121 3.1754260063171387 -2.0727860927581787
vertex -2.598076105117798 1.4954349994659424 4.959537982940674
vertex 4.959537029266357 2.598076105117798 -1.4954349994659424
endloop
endfacet
facet normal -0.5773524045944214 0.5773447155952454 -0.5773535966873169
outer loop
vertex 4.382185935974121 3.1754260063171387 -2.0727860927581787
vertex 4.220383167266846 3.0754261016845703 -2.010982036590576
vertex -3.1754260063171387 2.0727860927581787 4.3821868896484375
endloop
endfacet
facet normal 0.5773522853851318 -0.5773448348045349 -0.5773537755012512
outer loop
vertex -4.220383167266846 -3.0754261016845703 -2.010982036590576
vertex 3.0754261016845703 -2.010982036590576 4.220384120941162
vertex 3.1754260063171387 -2.0727860927581787 4.3821868896484375
endloop
endfacet
facet normal 0.30901700258255005 0.8090170621871948 -0.49999991059303284
outer loop
vertex -4.220383167266846 -3.0754261016845703 -2.010982036590576
vertex -4.797733783721924 -2.4980759620666504 -1.4336320161819458
vertex 3.0754261016845703 -2.010982036590576 4.220384120941162
endloop
endfacet
facet normal -0.5773522853851318 0.5773448348045349 -0.5773537755012512
outer loop
vertex 4.220383167266846 3.0754261016845703 -2.010982036590576
vertex -3.0754261016845703 2.010982036590576 4.220384120941162
vertex -3.1754260063171387 2.0727860927581787 4.3821868896484375
endloop
endfacet
facet normal -0.30901700258255005 -0.8090170621871948 -0.49999991059303284
outer loop
vertex 4.220383167266846 3.0754261016845703 -2.010982036590576
vertex 4.797733783721924 2.4980759620666504 -1.4336320161819458
vertex -3.0754261016845703 2.010982036590576 4.220384120941162
endloop
endfacet
facet normal -0.5773500204086304 0.5773508548736572 0.577349841594696
outer loop
vertex -4.959537029266357 -2.598076105117798 -1.4954349994659424
vertex 2.598076105117798 -1.4954349994659424 4.959537982940674
vertex -4.797733783721924 -2.4980759620666504 -1.4336320161819458
endloop
endfacet
facet normal 0.5773500204086304 -0.5773508548736572 0.577349841594696
outer loop
vertex 4.959537029266357 2.598076105117798 -1.4954349994659424
vertex -2.598076105117798 1.4954349994659424 4.959537982940674
vertex 4.797733783721924 2.4980759620666504 -1.4336320161819458
endloop
endfacet
facet normal 0.3090170919895172 0.8090169429779053 -0.5000000596046448
outer loop
vertex -4.797733783721924 -2.4980759620666504 -1.4336320161819458
vertex 2.4980759620666504 -1.4336320161819458 4.797733783721924
vertex 3.0754261016845703 -2.010982036590576 4.220384120941162
endloop
endfacet
facet normal -0.5773489475250244 0.577354371547699 0.577347457408905
outer loop
vertex -4.797733783721924 -2.4980759620666504 -1.4336320161819458
vertex 2.598076105117798 -1.4954349994659424 4.959537982940674
vertex 2.4980759620666504 -1.4336320161819458 4.797733783721924
endloop
endfacet
facet normal -0.3090170919895172 -0.8090169429779053 -0.5000000596046448
outer loop
vertex 4.797733783721924 2.4980759620666504 -1.4336320161819458
vertex -2.4980759620666504 1.4336320161819458 4.797733783721924
vertex -3.0754261016845703 2.010982036590576 4.220384120941162
endloop
endfacet
facet normal 0.5773489475250244 -0.577354371547699 0.577347457408905
outer loop
vertex 4.797733783721924 2.4980759620666504 -1.4336320161819458
vertex -2.598076105117798 1.4954349994659424 4.959537982940674
vertex -2.4980759620666504 1.4336320161819458 4.797733783721924
endloop
endfacet
facet normal 0.0 1.0 0.0
outer loop
vertex -4.849273204803467 2.8867509365081787 -1.3170239925384521
vertex 4.492451190948486 2.8867509365081787 2.2511959075927734
vertex 4.849273204803467 2.8867509365081787 1.3170239925384521
endloop
endfacet
facet normal -0.35682666301727295 -2.8312183530943003e-06 0.9341706037521362
outer loop
vertex -4.849273204803467 2.8867509365081787 -1.3170239925384521
vertex -0.17841100692749023 -5.773502826690674 0.46708619594573975
vertex -4.687469959259033 2.7867510318756104 -1.2552200555801392
endloop
endfacet
facet normal -0.3568219840526581 5.803894509881502e-06 0.9341723918914795
outer loop
vertex -4.849273204803467 2.8867509365081787 -1.3170239925384521
vertex -4.687469959259033 2.7867510318756104 -1.2552200555801392
vertex 4.330647945404053 2.7867510318756104 2.1893930435180664
endloop
endfacet
facet normal -0.3568219840526581 3.814700903603807e-06 0.9341723918914795
outer loop
vertex -4.849273204803467 2.8867509365081787 -1.3170239925384521
vertex 4.330647945404053 2.7867510318756104 2.1893930435180664
vertex 4.492451190948486 2.8867509365081787 2.2511959075927734
endloop
endfacet
facet normal 0.35682666301727295 2.8312183530943003e-06 0.9341706037521362
outer loop
vertex 4.849273204803467 -2.8867509365081787 -1.3170239925384521
vertex 0.17841100692749023 5.773502826690674 0.46708619594573975
vertex 4.687469959259033 -2.7867510318756104 -1.2552200555801392
endloop
endfacet
facet normal 0.3568219840526581 -5.803894509881502e-06 0.9341723918914795
outer loop
vertex 4.849273204803467 -2.8867509365081787 -1.3170239925384521
vertex 4.687469959259033 -2.7867510318756104 -1.2552200555801392
vertex -4.330647945404053 -2.7867510318756104 2.1893930435180664
endloop
endfacet
facet normal 0.3568219840526581 -3.814700903603807e-06 0.9341723918914795
outer loop
vertex 4.849273204803467 -2.8867509365081787 -1.3170239925384521
vertex -4.330647945404053 -2.7867510318756104 2.1893930435180664
vertex -4.492451190948486 -2.8867509365081787 2.2511959075927734
endloop
endfacet
facet normal 0.0 -1.0 0.0
outer loop
vertex 4.849273204803467 -2.8867509365081787 -1.3170239925384521
vertex -4.492451190948486 -2.8867509365081787 2.2511959075927734
vertex -4.849273204803467 -2.8867509365081787 1.3170239925384521
endloop
endfacet
facet normal -0.35682278871536255 0.0 0.9341720342636108
outer loop
vertex -4.687469959259033 2.7867510318756104 -1.2552200555801392
vertex -0.17841100692749023 -5.773502826690674 0.46708619594573975
vertex -0.17841100692749023 -5.573503017425537 0.46708619594573975
endloop
endfacet
facet normal 0.8090171217918396 0.5000000596046448 0.3090166747570038
outer loop
vertex -4.687469959259033 2.7867510318756104 -1.2552200555801392
vertex -0.17841100692749023 -5.573503017425537 0.46708619594573975
vertex 0.17841100692749023 -5.573503017425537 -0.46708619594573975
endloop
endfacet
facet normal 0.35682278871536255 0.0 0.9341720342636108
outer loop
vertex 4.687469959259033 -2.7867510318756104 -1.2552200555801392
vertex 0.17841100692749023 5.773502826690674 0.46708619594573975
vertex 0.17841100692749023 5.573503017425537 0.46708619594573975
endloop
endfacet
facet normal -0.8090171217918396 -0.5000000596046448 0.3090166747570038
outer loop
vertex 4.687469959259033 -2.7867510318756104 -1.2552200555801392
vertex 0.17841100692749023 5.573503017425537 0.46708619594573975
vertex -0.17841100692749023 5.573503017425537 -0.46708619594573975
endloop
endfacet
facet normal 0.8090169429779053 -0.5000000596046448 0.3090168833732605
outer loop
vertex 0.17841100692749023 -5.773502826690674 -0.46708619594573975
vertex 4.849273204803467 2.8867509365081787 1.3170239925384521
vertex 4.492451190948486 2.8867509365081787 2.2511959075927734
endloop
endfacet
facet normal 0.80901700258255 -0.5000000596046448 0.3090169131755829
outer loop
vertex 0.17841100692749023 -5.773502826690674 -0.46708619594573975
vertex 4.492451190948486 2.8867509365081787 2.2511959075927734
vertex -0.17841100692749023 -5.773502826690674 0.46708619594573975
endloop
endfacet
facet normal 0.35682201385498047 0.0 -0.9341723918914795
outer loop
vertex 0.17841100692749023 -5.773502826690674 -0.46708619594573975
vertex 0.17841100692749023 -5.573503017425537 -0.46708619594573975
vertex 4.849273204803467 2.8867509365081787 1.3170239925384521
endloop
endfacet
facet normal -0.80901700258255 0.5 -0.3090169429779053
outer loop
vertex 0.17841100692749023 -5.573503017425537 -0.46708619594573975
vertex -0.17841100692749023 -5.573503017425537 0.46708619594573975
vertex 4.687469959259033 2.7867510318756104 1.2552200555801392
endloop
endfacet
facet normal 0.35682666301727295 -2.9636767067131586e-06 -0.9341706037521362
outer loop
vertex 0.17841100692749023 -5.573503017425537 -0.46708619594573975
vertex 4.687469959259033 2.7867510318756104 1.2552200555801392
vertex 4.849273204803467 2.8867509365081787 1.3170239925384521
endloop
endfacet
facet normal -0.35682666301727295 2.9636767067131586e-06 -0.9341706037521362
outer loop
vertex -0.17841100692749023 5.573503017425537 -0.46708619594573975
vertex -4.687469959259033 -2.7867510318756104 1.2552200555801392
vertex -4.849273204803467 -2.8867509365081787 1.3170239925384521
endloop
endfacet
facet normal 0.80901700258255 -0.5 -0.3090169429779053
outer loop
vertex -0.17841100692749023 5.573503017425537 -0.46708619594573975
vertex 0.17841100692749023 5.573503017425537 0.46708619594573975
vertex -4.687469959259033 -2.7867510318756104 1.2552200555801392
endloop
endfacet
facet normal -0.8090169429779053 0.5000000596046448 0.3090168833732605
outer loop
vertex -0.17841100692749023 5.773502826690674 -0.46708619594573975
vertex -4.849273204803467 -2.8867509365081787 1.3170239925384521
vertex -4.492451190948486 -2.8867509365081787 2.2511959075927734
endloop
endfacet
facet normal -0.80901700258255 0.5000000596046448 0.3090169131755829
outer loop
vertex -0.17841100692749023 5.773502826690674 -0.46708619594573975
vertex -4.492451190948486 -2.8867509365081787 2.2511959075927734
vertex 0.17841100692749023 5.773502826690674 0.46708619594573975
endloop
endfacet
facet normal -0.35682201385498047 -0.0 -0.9341723918914795
outer loop
vertex -0.17841100692749023 5.773502826690674 -0.46708619594573975
vertex -0.17841100692749023 5.573503017425537 -0.46708619594573975
vertex -4.849273204803467 -2.8867509365081787 1.3170239925384521
endloop
endfacet
facet normal -0.5 0.3090169131755829 0.80901700258255
outer loop
vertex -5.773502826690674 0.46708619594573975 -0.17841100692749023
vertex -5.773502826690674 -0.46708619594573975 0.17841100692749023
vertex 2.8867509365081787 2.2511959075927734 4.492451190948486
endloop
endfacet
facet normal 0.0 0.9341724514961243 -0.3568219244480133
outer loop
vertex -5.773502826690674 0.46708619594573975 -0.17841100692749023
vertex 2.8867509365081787 2.2511959075927734 4.492451190948486
vertex -5.573503017425537 0.46708619594573975 -0.17841100692749023
endloop
endfacet
facet normal 0.5000000596046448 -0.30901649594306946 -0.8090171217918396
outer loop
vertex -5.573503017425537 0.46708619594573975 -0.17841100692749023
vertex 2.7867510318756104 2.1893930435180664 4.330647945404053
vertex 2.7867510318756104 1.2552200555801392 4.687469959259033
endloop
endfacet
facet normal 0.5 -0.3090169429779053 -0.80901700258255
outer loop
vertex -5.573503017425537 0.46708619594573975 -0.17841100692749023
vertex 2.7867510318756104 1.2552200555801392 4.687469959259033
vertex -5.573503017425537 -0.46708619594573975 0.17841100692749023
endloop
endfacet
facet normal -1.9757906102313427e-06 0.934173583984375 -0.35681888461112976
outer loop
vertex -5.573503017425537 0.46708619594573975 -0.17841100692749023
vertex 2.8867509365081787 2.2511959075927734 4.492451190948486
vertex 2.7867510318756104 2.1893930435180664 4.330647945404053
endloop
endfacet
facet normal -0.5000000596046448 0.30901649594306946 -0.8090171217918396
outer loop
vertex 5.573503017425537 -0.46708619594573975 -0.17841100692749023
vertex -2.7867510318756104 -2.1893930435180664 4.330647945404053
vertex -2.7867510318756104 -1.2552200555801392 4.687469959259033
endloop
endfacet
facet normal -0.5 0.3090169429779053 -0.80901700258255
outer loop
vertex 5.573503017425537 -0.46708619594573975 -0.17841100692749023
vertex -2.7867510318756104 -1.2552200555801392 4.687469959259033
vertex 5.573503017425537 0.46708619594573975 0.17841100692749023
endloop
endfacet
facet normal 1.907349087559851e-06 -0.9341738224029541 -0.356818288564682
outer loop
vertex 5.773502826690674 -0.46708619594573975 -0.17841100692749023
vertex -2.8867509365081787 -2.2511959075927734 4.492451190948486
vertex -2.7867510318756104 -2.1893930435180664 4.330647945404053
endloop
endfacet
facet normal -0.0 -0.9341723322868347 -0.35682201385498047
outer loop
vertex 5.773502826690674 -0.46708619594573975 -0.17841100692749023
vertex -2.7867510318756104 -2.1893930435180664 4.330647945404053
vertex 5.573503017425537 -0.46708619594573975 -0.17841100692749023
endloop
endfacet
facet normal 0.5 -0.3090169131755829 0.80901700258255
outer loop
vertex 5.773502826690674 -0.46708619594573975 -0.17841100692749023
vertex 5.773502826690674 0.46708619594573975 0.17841100692749023
vertex -2.8867509365081787 -2.2511959075927734 4.492451190948486
endloop
endfacet
facet normal -0.5000000596046448 0.3090168833732605 0.8090169429779053
outer loop
vertex -5.773502826690674 -0.46708619594573975 0.17841100692749023
vertex 2.8867509365081787 1.3170239925384521 4.849273204803467
vertex 2.8867509365081787 2.2511959075927734 4.492451190948486
endloop
endfacet
facet normal 0.0 -0.9341723918914795 0.35682201385498047
outer loop
vertex -5.773502826690674 -0.46708619594573975 0.17841100692749023
vertex -5.573503017425537 -0.46708619594573975 0.17841100692749023
vertex 2.8867509365081787 1.3170239925384521 4.849273204803467
endloop
endfacet
facet normal -2.9636767067131586e-06 -0.9341706037521362 0.35682666301727295
outer loop
vertex -5.573503017425537 -0.46708619594573975 0.17841100692749023
vertex 2.7867510318756104 1.2552200555801392 4.687469959259033
vertex 2.8867509365081787 1.3170239925384521 4.849273204803467
endloop
endfacet
facet normal -0.0 0.9341723918914795 0.3568219244480133
outer loop
vertex 5.573503017425537 0.46708619594573975 0.17841100692749023
vertex -2.7867510318756104 -1.2552200555801392 4.687469959259033
vertex 5.773502826690674 0.46708619594573975 0.17841100692749023
endloop
endfacet
facet normal 0.5000000596046448 -0.3090168833732605 0.8090169429779053
outer loop
vertex 5.773502826690674 0.46708619594573975 0.17841100692749023
vertex -2.8867509365081787 -1.3170239925384521 4.849273204803467
vertex -2.8867509365081787 -2.2511959075927734 4.492451190948486
endloop
endfacet
facet normal 2.8610140816454077e-06 0.934170663356781 0.35682663321495056
outer loop
vertex 5.773502826690674 0.46708619594573975 0.17841100692749023
vertex -2.7867510318756104 -1.2552200555801392 4.687469959259033
vertex -2.8867509365081787 -1.3170239925384521 4.849273204803467
endloop
endfacet
facet normal -0.3568219244480133 0.0 0.9341724514961243
outer loop
vertex -0.17841100692749023 -5.773502826690674 0.46708619594573975
vertex 4.492451190948486 2.8867509365081787 2.2511959075927734
vertex -0.17841100692749023 -5.573503017425537 0.46708619594573975
endloop
endfacet
facet normal -0.8090171217918396 0.5000000596046448 -0.30901649594306946
outer loop
vertex -0.17841100692749023 -5.573503017425537 0.46708619594573975
vertex 4.330647945404053 2.7867510318756104 2.1893930435180664
vertex 4.687469959259033 2.7867510318756104 1.2552200555801392
endloop
endfacet
facet normal -0.35681888461112976 -1.9757906102313427e-06 0.934173583984375
outer loop
vertex -0.17841100692749023 -5.573503017425537 0.46708619594573975
vertex 4.492451190948486 2.8867509365081787 2.2511959075927734
vertex 4.330647945404053 2.7867510318756104 2.1893930435180664
endloop
endfacet
facet normal 0.8090171217918396 -0.5000000596046448 -0.30901649594306946
outer loop
vertex 0.17841100692749023 5.573503017425537 0.46708619594573975
vertex -4.330647945404053 -2.7867510318756104 2.1893930435180664
vertex -4.687469959259033 -2.7867510318756104 1.2552200555801392
endloop
endfacet
facet normal 0.35681888461112976 1.9757906102313427e-06 0.934173583984375
outer loop
vertex 0.17841100692749023 5.573503017425537 0.46708619594573975
vertex -4.492451190948486 -2.8867509365081787 2.2511959075927734
vertex -4.330647945404053 -2.7867510318756104 2.1893930435180664
endloop
endfacet
facet normal 0.3568219244480133 0.0 0.9341724514961243
outer loop
vertex 0.17841100692749023 5.773502826690674 0.46708619594573975
vertex -4.492451190948486 -2.8867509365081787 2.2511959075927734
vertex 0.17841100692749023 5.573503017425537 0.46708619594573975
endloop
endfacet
facet normal 0.4999997615814209 0.3090168237686157 -0.8090171813964844
outer loop
vertex -4.797733783721924 2.4980759620666504 1.4336320161819458
vertex -4.220383167266846 3.0754261016845703 2.010982036590576
vertex 1.4336320161819458 -4.797733783721924 2.4980759620666504
endloop
endfacet
facet normal -0.5773534178733826 -0.5773524045944214 -0.5773450136184692
outer loop
vertex -4.797733783721924 2.4980759620666504 1.4336320161819458
vertex 1.4336320161819458 -4.797733783721924 2.4980759620666504
vertex 1.4954349994659424 -4.959537029266357 2.5980770587921143
endloop
endfacet
facet normal -0.5773499608039856 -0.5773501396179199 -0.5773507356643677
outer loop
vertex -4.797733783721924 2.4980759620666504 1.4336320161819458
vertex 1.4954349994659424 -4.959537029266357 2.5980770587921143
vertex -4.959537029266357 2.598076105117798 1.4954349994659424
endloop
endfacet
facet normal 0.5773534178733826 0.5773524045944214 -0.5773450136184692
outer loop
vertex 4.797733783721924 -2.4980759620666504 1.4336320161819458
vertex -1.4336320161819458 4.797733783721924 2.4980759620666504
vertex -1.4954349994659424 4.959537029266357 2.5980770587921143
endloop
endfacet
facet normal 0.5773499608039856 0.5773501396179199 -0.5773507356643677
outer loop
vertex 4.797733783721924 -2.4980759620666504 1.4336320161819458
vertex -1.4954349994659424 4.959537029266357 2.5980770587921143
vertex 4.959537029266357 -2.598076105117798 1.4954349994659424
endloop
endfacet
facet normal -0.4999997615814209 -0.3090168237686157 -0.8090171813964844
outer loop
vertex 4.797733783721924 -2.4980759620666504 1.4336320161819458
vertex 4.220383167266846 -3.0754261016845703 2.010982036590576
vertex -1.4336320161819458 4.797733783721924 2.4980759620666504
endloop
endfacet
facet normal -0.499999463558197 -0.30901631712913513 0.809017539024353
outer loop
vertex -4.959537029266357 2.598076105117798 1.4954349994659424
vertex 1.4954349994659424 -4.959537029266357 2.5980770587921143
vertex 2.0727860927581787 -4.382185935974121 3.175426959991455
endloop
endfacet
facet normal -0.5000001788139343 -0.30901721119880676 0.8090168237686157
outer loop
vertex -4.959537029266357 2.598076105117798 1.4954349994659424
vertex 2.0727860927581787 -4.382185935974121 3.175426959991455
vertex -4.382185935974121 3.1754260063171387 2.0727860927581787
endloop
endfacet
facet normal 0.499999463558197 0.30901631712913513 0.809017539024353
outer loop
vertex 4.959537029266357 -2.598076105117798 1.4954349994659424
vertex -1.4954349994659424 4.959537029266357 2.5980770587921143
vertex -2.0727860927581787 4.382185935974121 3.175426959991455
endloop
endfacet
facet normal 0.5000001788139343 0.30901721119880676 0.8090168237686157
outer loop
vertex 4.959537029266357 -2.598076105117798 1.4954349994659424
vertex -2.0727860927581787 4.382185935974121 3.175426959991455
vertex 4.382185935974121 -3.1754260063171387 2.0727860927581787
endloop
endfacet
facet normal 0.5773537158966064 0.5773524641990662 0.5773446559906006
outer loop
vertex -4.220383167266846 3.0754261016845703 2.010982036590576
vertex -4.382185935974121 3.1754260063171387 2.0727860927581787
vertex 2.0727860927581787 -4.382185935974121 3.175426959991455
endloop
endfacet
facet normal 0.5773532390594482 0.5773522257804871 0.5773453116416931
outer loop
vertex -4.220383167266846 3.0754261016845703 2.010982036590576
vertex 2.0727860927581787 -4.382185935974121 3.175426959991455
vertex 2.010982036590576 -4.220383167266846 3.0754270553588867
endloop
endfacet
facet normal 0.5000002980232239 0.30901727080345154 -0.8090167045593262
outer loop
vertex -4.220383167266846 3.0754261016845703 2.010982036590576
vertex 2.010982036590576 -4.220383167266846 3.0754270553588867
vertex 1.4336320161819458 -4.797733783721924 2.4980759620666504
endloop
endfacet
facet normal -0.5773537158966064 -0.5773524641990662 0.5773446559906006
outer loop
vertex 4.220383167266846 -3.0754261016845703 2.010982036590576
vertex 4.382185935974121 -3.1754260063171387 2.0727860927581787
vertex -2.0727860927581787 4.382185935974121 3.175426959991455
endloop
endfacet
facet normal -0.5773532390594482 -0.5773522257804871 0.5773453116416931
outer loop
vertex 4.220383167266846 -3.0754261016845703 2.010982036590576
vertex -2.0727860927581787 4.382185935974121 3.175426959991455
vertex -2.010982036590576 4.220383167266846 3.0754270553588867
endloop
endfacet
facet normal -0.5000002980232239 -0.30901727080345154 -0.8090167045593262
outer loop
vertex 4.220383167266846 -3.0754261016845703 2.010982036590576
vertex -2.010982036590576 4.220383167266846 3.0754270553588867
vertex -1.4336320161819458 4.797733783721924 2.4980759620666504
endloop
endfacet
facet normal 0.0 0.0 -1.0
outer loop
vertex -2.1893930435180664 -4.330647945404053 2.7867510318756104
vertex 1.2552200555801392 4.687469959259033 2.7867510318756104
vertex 2.1893930435180664 4.330647945404053 2.7867510318756104
endloop
endfacet
facet normal -0.9341723918914795 0.3568219542503357 3.951587586925598e-06
outer loop
vertex 1.2552200555801392 4.687469959259033 2.7867510318756104
vertex -2.1893930435180664 -4.330647945404053 2.7867510318756104
vertex -2.2511959075927734 -4.492451190948486 2.8867509365081787
endloop
endfacet
facet normal -0.9341724514961243 0.3568219542503357 5.781656000181101e-06
outer loop
vertex 1.2552200555801392 4.687469959259033 2.7867510318756104
vertex -2.2511959075927734 -4.492451190948486 2.8867509365081787
vertex 1.3170239925384521 4.849273204803467 2.8867509365081787
endloop
endfacet
facet normal 0.9341723918914795 -0.3568219840526581 4.2319334170315415e-06
outer loop
vertex 2.1893930435180664 4.330647945404053 2.7867510318756104
vertex 2.2511959075927734 4.492451190948486 2.8867509365081787
vertex -1.3170239925384521 -4.849273204803467 2.8867509365081787
endloop
endfacet
facet normal 0.9341723918914795 -0.3568219542503357 7.903175173851196e-06
outer loop
vertex 2.1893930435180664 4.330647945404053 2.7867510318756104
vertex -1.3170239925384521 -4.849273204803467 2.8867509365081787
vertex -1.2552200555801392 -4.687469959259033 2.7867510318756104
endloop
endfacet
facet normal 0.0 0.0 -1.0
outer loop
vertex 2.1893930435180664 4.330647945404053 2.7867510318756104
vertex -1.2552200555801392 -4.687469959259033 2.7867510318756104
vertex -2.1893930435180664 -4.330647945404053 2.7867510318756104
endloop
endfacet
facet normal 0.0 0.0 1.0
outer loop
vertex -1.3170239925384521 -4.849273204803467 2.8867509365081787
vertex 2.2511959075927734 4.492451190948486 2.8867509365081787
vertex 1.3170239925384521 4.849273204803467 2.8867509365081787
endloop
endfacet
facet normal 0.0 0.0 1.0
outer loop
vertex 1.3170239925384521 4.849273204803467 2.8867509365081787
vertex -2.2511959075927734 -4.492451190948486 2.8867509365081787
vertex -1.3170239925384521 -4.849273204803467 2.8867509365081787
endloop
endfacet
endsolid spikeball_ascii.stl
